<svg id="Layer_1" data-name="Layer 1" xmlns="http://www.w3.org/2000/svg" viewBox="0 0 130 40"><defs><style>.cls-1{fill:#12e94e;}.cls-2{fill:#042327;}</style></defs><title>Relay_Logo</title><path class="cls-1" d="M6.36,16.78,11.42,4.57A3.31,3.31,0,1,0,5.31,2L.25,14.25a3.31,3.31,0,0,0,6.11,2.53Z"/><path class="cls-1" d="M14.69,12.47a3.31,3.31,0,0,0-4.32,1.78L5.31,26.47A3.31,3.31,0,1,0,11.42,29l5-12.22A3.3,3.3,0,0,0,14.69,12.47Z"/><path class="cls-2" d="M33.29,13.16C34.57,10.11,36.38,9,41.9,9h1.32v5.52H40.57c-4.19,0-7.28,2.87-7.28,6.84V31H27.77V9h5.07l.23,4.2Z"/><path class="cls-2" d="M55.16,8.3c6.13,0,11.39,6,11.39,12.58a13.69,13.69,0,0,1-.09,1.37H49.64c.44,2.39,3.48,4.5,6.09,4.5a7,7,0,0,0,5.61-2.56l3.48,3.54a12.56,12.56,0,0,1-9.09,4c-6,0-12-4.95-12-11.7A11.54,11.54,0,0,1,55.16,8.3Zm5.47,9.8c-.44-1.81-2.07-4.86-5.47-4.86s-5.08,3-5.52,4.86Z"/><path class="cls-2" d="M75.51,0V31H70V0Z"/><path class="cls-2" d="M97.62,11.17h.22L98.06,9h5.08V31H98.06l-.22-2.21h-.22a9.79,9.79,0,0,1-7.28,2.87c-6.63,0-11.13-6-11.13-11.7S83.71,8.3,90.34,8.3A9.79,9.79,0,0,1,97.62,11.17ZM84.73,20a6.55,6.55,0,0,0,6.71,6.75,6.68,6.68,0,0,0,6.18-3.66V16.91a6.75,6.75,0,0,0-6.18-3.67A6.56,6.56,0,0,0,84.73,20Z"/><path class="cls-2" d="M130,9l-9.85,23.75c-2.07,5-3.93,7.29-7.5,7.29h-7.07V35.23H110c2.56,0,3.49-.62,4.41-2.73l.45-1.11L105.58,9h5.88l6.22,15h.22l6.23-15Z"/></svg>