<?xml version="1.0" encoding="utf-8"?>
<!-- Generator: Adobe Illustrator 23.1.1, SVG Export Plug-In . SVG Version: 6.00 Build 0)  -->
<svg version="1.1" id="Layer_1" xmlns="http://www.w3.org/2000/svg" xmlns:xlink="http://www.w3.org/1999/xlink" x="0px" y="0px"
	 viewBox="0 0 130 40" style="enable-background:new 0 0 130 40;" xml:space="preserve">
<style type="text/css">
	.st0{fill:#12E94E;}
	.st1{fill:#FFFFFF;}
</style>
<title>Relay_Logo</title>
<path class="st0" d="M6.4,16.8l5.1-12.2c0.7-1.7-0.1-3.6-1.8-4.3S6,0.3,5.3,2L0.2,14.2c-0.6,1.7,0.3,3.6,2,4.2
	C3.8,19.1,5.6,18.3,6.4,16.8z"/>
<path class="st0" d="M14.7,12.5c-1.7-0.7-3.6,0.1-4.3,1.8L5.3,26.5c-0.8,1.7-0.1,3.6,1.6,4.4s3.6,0.1,4.4-1.6c0-0.1,0.1-0.2,0.1-0.3
	l5-12.2C17.1,15.1,16.4,13.2,14.7,12.5z"/>
<path class="st1" d="M33.3,13.2c1.3-3.1,3.1-4.2,8.6-4.2h1.3v5.5h-2.7c-4.2,0-7.3,2.9-7.3,6.8V31h-5.5V9h5.1l0.2,4.2L33.3,13.2z"/>
<path class="st1" d="M55.2,8.3c6.1,0,11.4,6,11.4,12.6c0,0.5,0,0.9-0.1,1.4H49.6c0.4,2.4,3.5,4.5,6.1,4.5c2.2,0.1,4.2-0.9,5.6-2.6
	l3.5,3.5c-2.4,2.5-5.6,4-9.1,4c-6,0-12-5-12-11.7C43.6,13.7,48.7,8.4,55.2,8.3C55.1,8.3,55.1,8.3,55.2,8.3z M60.6,18.1
	c-0.4-1.8-2.1-4.9-5.5-4.9s-5.1,3-5.5,4.9H60.6z"/>
<path class="st1" d="M75.5,0v31H70V0H75.5z"/>
<path class="st1" d="M97.6,11.2h0.2L98.1,9h5.1v22h-5.1l-0.2-2.2h-0.2c-1.9,1.9-4.6,3-7.3,2.9c-6.6,0-11.1-6-11.1-11.7
	S83.7,8.3,90.3,8.3C93.1,8.2,95.7,9.2,97.6,11.2z M84.7,20c-0.1,3.6,2.7,6.6,6.3,6.7c0.1,0,0.2,0,0.4,0c2.6,0.1,5-1.3,6.2-3.7v-6.2
	c-1.2-2.3-3.6-3.7-6.2-3.7c-3.6-0.1-6.6,2.8-6.7,6.4C84.7,19.8,84.7,19.9,84.7,20z"/>
<path class="st1" d="M130,9l-9.8,23.8c-2.1,5-3.9,7.3-7.5,7.3h-7.1v-4.8h4.4c2.6,0,3.5-0.6,4.4-2.7l0.4-1.1L105.6,9h5.9l6.2,15h0.2
	l6.2-15H130z"/>
</svg>
